<svg xmlns="http://www.w3.org/2000/svg" viewBox="0 0 600 340">
  <defs>
    <linearGradient id="bg4" x1="0" y1="0" x2="1" y2="1">
      <stop offset="0%" stop-color="#0f0a1e"/>
      <stop offset="100%" stop-color="#1a1030"/>
    </linearGradient>
  </defs>
  <!-- Background -->
  <rect width="600" height="340" fill="url(#bg4)" rx="8"/>
  <!-- Browser chrome -->
  <rect x="0" y="0" width="600" height="32" fill="#111827" rx="8"/>
  <rect x="0" y="16" width="600" height="16" fill="#111827"/>
  <circle cx="18" cy="16" r="5" fill="#ef4444"/>
  <circle cx="36" cy="16" r="5" fill="#fbbf24"/>
  <circle cx="54" cy="16" r="5" fill="#22c55e"/>
  <rect x="180" y="9" width="240" height="14" rx="4" fill="#1f2937"/>
  <text x="300" y="20" text-anchor="middle" font-family="system-ui,sans-serif" font-size="8" fill="#6b7280">localhost:3000/stories</text>
  <!-- Header -->
  <rect x="0" y="32" width="600" height="44" fill="#14102a"/>
  <text x="24" y="58" font-family="system-ui,sans-serif" font-weight="700" font-size="15" fill="#c4b5fd">StoriesApp</text>
  <rect x="140" y="44" width="120" height="24" rx="6" fill="#1f1940"/>
  <text x="200" y="60" text-anchor="middle" font-family="system-ui,sans-serif" font-size="9" fill="#9ca3af">Search stories...</text>
  <rect x="480" y="44" width="60" height="24" rx="6" fill="#7c3aed"/>
  <text x="510" y="60" text-anchor="middle" font-family="system-ui,sans-serif" font-size="9" fill="#fff">Write</text>
  <text x="310" y="60" font-family="system-ui,sans-serif" font-size="10" fill="#9ca3af">Trending</text>
  <text x="380" y="60" font-family="system-ui,sans-serif" font-size="10" fill="#9ca3af">My Library</text>
  <!-- Section title -->
  <text x="24" y="100" font-family="system-ui,sans-serif" font-weight="700" font-size="13" fill="#e5e7eb">Trending Stories</text>
  <!-- Story card 1 -->
  <rect x="24" y="112" width="170" height="200" rx="10" fill="#1e1640"/>
  <rect x="32" y="120" width="154" height="100" rx="6" fill="#2d2060"/>
  <text x="109" y="160" text-anchor="middle" font-family="serif" font-size="16" fill="#c4b5fd">The Last</text>
  <text x="109" y="180" text-anchor="middle" font-family="serif" font-size="16" fill="#c4b5fd">Frontier</text>
  <text x="109" y="200" text-anchor="middle" font-family="system-ui,sans-serif" font-size="8" fill="#9ca3af">by alexwriter</text>
  <text x="32" y="238" font-family="system-ui,sans-serif" font-weight="600" font-size="10" fill="#e5e7eb">The Last Frontier</text>
  <rect x="32" y="244" width="50" height="14" rx="7" fill="#7c3aed" opacity="0.2"/>
  <text x="57" y="254" text-anchor="middle" font-family="system-ui,sans-serif" font-size="7" fill="#a78bfa">Sci-Fi</text>
  <rect x="86" y="244" width="50" height="14" rx="7" fill="#22c55e" opacity="0.15"/>
  <text x="111" y="254" text-anchor="middle" font-family="system-ui,sans-serif" font-size="7" fill="#4ade80">Ongoing</text>
  <text x="32" y="272" font-family="system-ui,sans-serif" font-size="8" fill="#6b7280">12 chapters · 4.2k reads</text>
  <text x="32" y="286" font-family="system-ui,sans-serif" font-size="8" fill="#6b7280">248 recommendations</text>
  <text x="32" y="300" font-family="system-ui,sans-serif" font-size="8" fill="#a78bfa">+ Add to Library</text>
  <!-- Story card 2 -->
  <rect x="210" y="112" width="170" height="200" rx="10" fill="#1e1640"/>
  <rect x="218" y="120" width="154" height="100" rx="6" fill="#1a2040"/>
  <text x="295" y="160" text-anchor="middle" font-family="serif" font-size="16" fill="#93c5fd">Midnight</text>
  <text x="295" y="180" text-anchor="middle" font-family="serif" font-size="16" fill="#93c5fd">Echoes</text>
  <text x="295" y="200" text-anchor="middle" font-family="system-ui,sans-serif" font-size="8" fill="#9ca3af">by priyareads</text>
  <text x="218" y="238" font-family="system-ui,sans-serif" font-weight="600" font-size="10" fill="#e5e7eb">Midnight Echoes</text>
  <rect x="218" y="244" width="50" height="14" rx="7" fill="#3b82f6" opacity="0.2"/>
  <text x="243" y="254" text-anchor="middle" font-family="system-ui,sans-serif" font-size="7" fill="#60a5fa">Mystery</text>
  <rect x="272" y="244" width="60" height="14" rx="7" fill="#22c55e" opacity="0.15"/>
  <text x="302" y="254" text-anchor="middle" font-family="system-ui,sans-serif" font-size="7" fill="#4ade80">Completed</text>
  <text x="218" y="272" font-family="system-ui,sans-serif" font-size="8" fill="#6b7280">24 chapters · 11k reads</text>
  <text x="218" y="286" font-family="system-ui,sans-serif" font-size="8" fill="#6b7280">892 recommendations</text>
  <text x="218" y="300" font-family="system-ui,sans-serif" font-size="8" fill="#a78bfa">+ Add to Library</text>
  <!-- Story card 3 -->
  <rect x="396" y="112" width="170" height="200" rx="10" fill="#1e1640"/>
  <rect x="404" y="120" width="154" height="100" rx="6" fill="#201a10"/>
  <text x="481" y="160" text-anchor="middle" font-family="serif" font-size="16" fill="#fcd34d">Golden</text>
  <text x="481" y="180" text-anchor="middle" font-family="serif" font-size="16" fill="#fcd34d">Hour</text>
  <text x="481" y="200" text-anchor="middle" font-family="system-ui,sans-serif" font-size="8" fill="#9ca3af">by jordanink</text>
  <text x="404" y="238" font-family="system-ui,sans-serif" font-weight="600" font-size="10" fill="#e5e7eb">Golden Hour</text>
  <rect x="404" y="244" width="55" height="14" rx="7" fill="#f59e0b" opacity="0.2"/>
  <text x="431" y="254" text-anchor="middle" font-family="system-ui,sans-serif" font-size="7" fill="#fbbf24">Romance</text>
  <rect x="463" y="244" width="50" height="14" rx="7" fill="#22c55e" opacity="0.15"/>
  <text x="488" y="254" text-anchor="middle" font-family="system-ui,sans-serif" font-size="7" fill="#4ade80">Ongoing</text>
  <text x="404" y="272" font-family="system-ui,sans-serif" font-size="8" fill="#6b7280">8 chapters · 2.1k reads</text>
  <text x="404" y="286" font-family="system-ui,sans-serif" font-size="8" fill="#6b7280">156 recommendations</text>
  <text x="404" y="300" font-family="system-ui,sans-serif" font-size="8" fill="#a78bfa">+ Add to Library</text>
</svg>
