<svg xmlns="http://www.w3.org/2000/svg" viewBox="0 0 600 340">
  <defs>
    <linearGradient id="bg2" x1="0" y1="0" x2="1" y2="1">
      <stop offset="0%" stop-color="#0c1629"/>
      <stop offset="100%" stop-color="#111d3a"/>
    </linearGradient>
    <linearGradient id="blue" x1="0" y1="0" x2="1" y2="0">
      <stop offset="0%" stop-color="#3b82f6"/>
      <stop offset="100%" stop-color="#60a5fa"/>
    </linearGradient>
  </defs>
  <!-- Background -->
  <rect width="600" height="340" fill="url(#bg2)" rx="8"/>
  <!-- Browser chrome -->
  <rect x="0" y="0" width="600" height="32" fill="#111827" rx="8"/>
  <rect x="0" y="16" width="600" height="16" fill="#111827"/>
  <circle cx="18" cy="16" r="5" fill="#ef4444"/>
  <circle cx="36" cy="16" r="5" fill="#fbbf24"/>
  <circle cx="54" cy="16" r="5" fill="#22c55e"/>
  <rect x="180" y="9" width="240" height="14" rx="4" fill="#1f2937"/>
  <text x="300" y="20" text-anchor="middle" font-family="system-ui,sans-serif" font-size="8" fill="#6b7280">localhost:8000/expenses</text>
  <!-- Header bar -->
  <rect x="0" y="32" width="600" height="44" fill="#111d35"/>
  <text x="24" y="58" font-family="system-ui,sans-serif" font-weight="700" font-size="14" fill="#e5e7eb">Expense Workflow</text>
  <rect x="460" y="44" width="80" height="24" rx="6" fill="#3b82f6"/>
  <text x="500" y="60" text-anchor="middle" font-family="system-ui,sans-serif" font-size="9" fill="#fff">+ New Report</text>
  <!-- Stats row -->
  <rect x="16" y="88" width="135" height="60" rx="8" fill="#1a2744"/>
  <text x="30" y="108" font-family="system-ui,sans-serif" font-size="9" fill="#6b7280">Pending</text>
  <text x="30" y="132" font-family="system-ui,sans-serif" font-weight="700" font-size="20" fill="#fbbf24">12</text>
  <rect x="163" y="88" width="135" height="60" rx="8" fill="#1a2744"/>
  <text x="177" y="108" font-family="system-ui,sans-serif" font-size="9" fill="#6b7280">Approved</text>
  <text x="177" y="132" font-family="system-ui,sans-serif" font-weight="700" font-size="20" fill="#22c55e">48</text>
  <rect x="310" y="88" width="135" height="60" rx="8" fill="#1a2744"/>
  <text x="324" y="108" font-family="system-ui,sans-serif" font-size="9" fill="#6b7280">Rejected</text>
  <text x="324" y="132" font-family="system-ui,sans-serif" font-weight="700" font-size="20" fill="#ef4444">3</text>
  <rect x="457" y="88" width="127" height="60" rx="8" fill="#1a2744"/>
  <text x="471" y="108" font-family="system-ui,sans-serif" font-size="9" fill="#6b7280">Total Value</text>
  <text x="471" y="132" font-family="system-ui,sans-serif" font-weight="700" font-size="16" fill="#e5e7eb">$84,320</text>
  <!-- Table header -->
  <rect x="16" y="162" width="568" height="30" rx="6" fill="#1a2744"/>
  <text x="30" y="181" font-family="system-ui,sans-serif" font-size="9" font-weight="600" fill="#94a3b8">EXPENSE ID</text>
  <text x="140" y="181" font-family="system-ui,sans-serif" font-size="9" font-weight="600" fill="#94a3b8">EMPLOYEE</text>
  <text x="280" y="181" font-family="system-ui,sans-serif" font-size="9" font-weight="600" fill="#94a3b8">AMOUNT</text>
  <text x="370" y="181" font-family="system-ui,sans-serif" font-size="9" font-weight="600" fill="#94a3b8">POLICY</text>
  <text x="490" y="181" font-family="system-ui,sans-serif" font-size="9" font-weight="600" fill="#94a3b8">STATUS</text>
  <!-- Table rows -->
  <line x1="16" y1="196" x2="584" y2="196" stroke="#1f2937" stroke-width="1"/>
  <text x="30" y="214" font-family="monospace" font-size="9" fill="#60a5fa">EXP-2841</text>
  <text x="140" y="214" font-family="system-ui,sans-serif" font-size="9" fill="#e5e7eb">Sarah Chen</text>
  <text x="280" y="214" font-family="system-ui,sans-serif" font-size="9" fill="#e5e7eb">$1,240.00</text>
  <text x="370" y="214" font-family="system-ui,sans-serif" font-size="9" fill="#6b7280">Travel</text>
  <rect x="486" y="204" width="64" height="18" rx="9" fill="#22c55e" opacity="0.15"/>
  <text x="518" y="216" text-anchor="middle" font-family="system-ui,sans-serif" font-size="8" fill="#22c55e">Approved</text>
  <line x1="16" y1="226" x2="584" y2="226" stroke="#1f2937" stroke-width="1"/>
  <text x="30" y="244" font-family="monospace" font-size="9" fill="#60a5fa">EXP-2840</text>
  <text x="140" y="244" font-family="system-ui,sans-serif" font-size="9" fill="#e5e7eb">James Park</text>
  <text x="280" y="244" font-family="system-ui,sans-serif" font-size="9" fill="#e5e7eb">$580.50</text>
  <text x="370" y="244" font-family="system-ui,sans-serif" font-size="9" fill="#6b7280">Equipment</text>
  <rect x="486" y="234" width="64" height="18" rx="9" fill="#fbbf24" opacity="0.15"/>
  <text x="518" y="246" text-anchor="middle" font-family="system-ui,sans-serif" font-size="8" fill="#fbbf24">Pending</text>
  <line x1="16" y1="256" x2="584" y2="256" stroke="#1f2937" stroke-width="1"/>
  <text x="30" y="274" font-family="monospace" font-size="9" fill="#60a5fa">EXP-2839</text>
  <text x="140" y="274" font-family="system-ui,sans-serif" font-size="9" fill="#e5e7eb">Maria Lopez</text>
  <text x="280" y="274" font-family="system-ui,sans-serif" font-size="9" fill="#e5e7eb">$2,100.00</text>
  <text x="370" y="274" font-family="system-ui,sans-serif" font-size="9" fill="#6b7280">Software</text>
  <rect x="486" y="264" width="64" height="18" rx="9" fill="#fbbf24" opacity="0.15"/>
  <text x="518" y="276" text-anchor="middle" font-family="system-ui,sans-serif" font-size="8" fill="#fbbf24">Pending</text>
  <line x1="16" y1="286" x2="584" y2="286" stroke="#1f2937" stroke-width="1"/>
  <text x="30" y="304" font-family="monospace" font-size="9" fill="#60a5fa">EXP-2838</text>
  <text x="140" y="304" font-family="system-ui,sans-serif" font-size="9" fill="#e5e7eb">Alex Kim</text>
  <text x="280" y="304" font-family="system-ui,sans-serif" font-size="9" fill="#e5e7eb">$320.75</text>
  <text x="370" y="304" font-family="system-ui,sans-serif" font-size="9" fill="#6b7280">Meals</text>
  <rect x="486" y="294" width="64" height="18" rx="9" fill="#22c55e" opacity="0.15"/>
  <text x="518" y="306" text-anchor="middle" font-family="system-ui,sans-serif" font-size="8" fill="#22c55e">Approved</text>
</svg>
